<?xml version="1.0" encoding="utf-8"?>
<!-- Generator: Adobe Illustrator 21.0.0, SVG Export Plug-In . SVG Version: 6.00 Build 0)  -->
<svg version="1.1" id="Calque_1" xmlns="http://www.w3.org/2000/svg" xmlns:xlink="http://www.w3.org/1999/xlink" x="0px" y="0px"
	 viewBox="0 0 980 295.4" style="enable-background:new 0 0 980 295.4;" xml:space="preserve">
<g>
	<g>
		<g id="Layer_1_copy_49_">
			<path d="M143.4,142.7c-5.5-7.7-11.4-13.9-11.4-28.1V67.3c0-20,1.4-38.4-13.3-52.2C107,3.9,87.8,0,73,0C44.2,0,12,10.7,5.2,46.4
				c-0.7,3.8,2.1,5.8,4.5,6.4L39.2,56c2.7-0.1,4.7-2.8,5.2-5.5c2.5-12.3,12.8-18.2,24.4-18.2c6.2,0,13.3,2.3,17,7.9
				c4.2,6.2,3.7,14.8,3.7,22v3.9c-17.6,2-40.5,3.3-57,10.6C13.4,84.7,0,101.5,0,126.1c0,31.5,19.9,47.3,45.4,47.3
				c21.6,0,33.4-5.1,50-22.1c5.5,8,7.3,11.9,17.4,20.2c2.3,1.2,5.2,1.1,7.2-0.7h0.1c6-5.3,17-15,23.2-20.1
				C145.8,148.7,145.3,145.4,143.4,142.7z M89.4,96.9c0,11.8,0.3,21.7-5.7,32.2c-4.8,8.5-12.4,13.8-21,13.8
				c-11.6,0-18.4-8.8-18.4-22c0-25.8,23.2-30.5,45-30.5L89.4,96.9L89.4,96.9z M167.1,166.1V10.4c0-3.1,2.6-5.6,5.9-5.6h28.3
				c2.9,0.1,5.3,2.4,5.5,5.2v20.3h0.5c7.4-19.7,21.3-28.8,40-28.8c19,0,30.9,9.2,39.4,28.8c7.4-19.7,24-28.8,41.9-28.8
				c12.7,0,26.6,5.3,35.1,17c9.6,13.1,7.6,32.1,7.6,48.8v98.2c0,3.1-2.6,5.6-5.8,5.6H335c-3-0.3-5.5-2.6-5.5-5.6V83
				c0-6.6,0.6-22.9-0.9-29.2c-2.3-10.5-9-13.4-17.8-13.4c-7.3,0-15,4.9-18.1,12.8c-3.1,7.8-2.8,21-2.8,29.8v82.5
				c0,3.1-2.6,5.6-5.9,5.6h-30.3c-3.1-0.3-5.5-2.6-5.5-5.6V83c0-17.4,2.8-42.9-18.7-42.9c-21.8,0-20.9,24.9-20.9,42.9v82.5
				c0,3.1-2.6,5.6-5.8,5.6h-30.3C169.6,171,167.3,168.9,167.1,166.1z M608,231c-57,42-139.4,64.4-210.5,64.4
				c-99.6,0-189.3-36.9-257.2-98.2c-5.3-4.8-0.6-11.4,5.8-7.6c73.2,42.6,163.8,68.2,257.3,68.2c63.1,0,132.5-13,196.3-40.1
				C609.4,213.6,617.4,224,608,231z M680.5,137.7v23.8c0,3.2-3.5,7.1-7.3,5.1c-30.7-16.1-71.3-17.9-105.3,0.1
				c-3.4,1.9-7.1-1.8-7.1-5.1V139c0-3.6,0-9.8,3.7-15.3l59.9-85.8h-52.1c-3.2,0-5.8-2.3-5.8-5.6V10c0-3.4,2.5-5.6,5.6-5.6h99.7
				c3.2,0,5.8,2.3,5.8,5.6v19.1c0,3.2-2.7,7.4-7.5,14l-51.7,73.7c19.2-0.5,39.5,2.4,56.9,12.2C679.1,131.3,680.2,134.5,680.5,137.7z
				 M487,66c-17.6,2-40.6,3.3-57,10.5c-19,8.2-32.3,25-32.3,49.6c0,31.5,19.8,47.3,45.3,47.3c21.5,0,33.4-5.1,50-22.1
				c5.5,8,7.3,11.9,17.4,20.2c2.3,1.2,5.2,1.1,7.2-0.7l0,0c6.1-5.3,17.1-15,23.2-20.1c2.4-2,2.1-5.3,0.1-8
				c-5.5-7.7-11.4-13.9-11.4-28.1V67.3c0-20,1.4-38.4-13.4-52.2C504.5,3.9,485.2,0,470.4,0c-28.8,0-61.1,10.7-67.8,46.4
				c-0.7,3.8,2,5.8,4.5,6.4l29.4,3.2c2.7-0.1,4.8-2.8,5.3-5.6c2.5-12.3,12.8-18.2,24.4-18.2c6.2,0,13.3,2.3,17,7.9
				c4.3,6.2,3.7,14.8,3.7,22L487,66L487,66z M487,96.9c0,11.8,0.3,21.7-5.7,32.2c-4.8,8.5-12.5,13.8-20.9,13.8
				c-11.7,0-18.5-8.8-18.5-22c0-25.8,23.2-30.5,45.1-30.5V96.9z M763.3,1.5c-43.9,0-68.2,37.7-68.2,86.1c0,48.1,24,86.8,68.2,86.8
				c42.4,0,69.4-37.7,69.4-85.1C832.8,40.2,808.4,1.5,763.3,1.5z M763.3,142.4c-23.8,0-23.5-40.6-23.5-59.6s1.4-49.4,23.7-49.4
				c9.6,0,16.5,4.2,19.8,15.1c4,12.4,4.5,28.1,4.5,41.3C788,109.6,786.9,142.4,763.3,142.4z M972.1,19.9c7.9,12.5,7.9,33.4,7.9,48.5
				v98c-0.4,2.7-2.9,4.9-5.9,4.9h-30.4c-2.7-0.3-5.1-2.3-5.4-4.9V81.9c0-17,2-41.9-18.9-41.9c-7.4,0-14.2,4.9-17.5,12.4
				c-4.3,9.5-4.9,19-4.9,29.5v83.8c0,3.1-2.7,5.7-5.9,5.7h-30.2c-3.1-0.2-5.5-2.7-5.5-5.7V10c0.3-2.9,2.8-5.1,5.9-5.1h28.1
				c2.6,0.1,4.9,1.9,5.4,4.4v23.8h0.5c8.4-21.3,20.4-31.4,41.3-31.4C950.2,1.5,963.5,6.5,972.1,19.9z M655.9,185.4
				c6.2,7.8-1.6,61.3-32.2,86.8c-4.7,3.9-9.2,1.8-7.1-3.4c6.9-17.1,22.3-55.6,15-64.9c-7.2-9.3-48.1-4.4-66.4-2.2
				c-5.6,0.7-6.4-4.2-1.4-7.7C596.3,171.1,649.7,177.7,655.9,185.4z"/>
		</g>
	</g>
</g>
</svg>
