<?xml version="1.0" encoding="iso-8859-1"?>
<!-- Generator: Adobe Illustrator 16.0.0, SVG Export Plug-In . SVG Version: 6.00 Build 0)  -->
<!DOCTYPE svg PUBLIC "-//W3C//DTD SVG 1.1//EN" "http://www.w3.org/Graphics/SVG/1.1/DTD/svg11.dtd">
<svg version="1.1" id="Capa_1" xmlns="http://www.w3.org/2000/svg" xmlns:xlink="http://www.w3.org/1999/xlink" x="0px" y="0px"
	 width="47.949px" height="47.949px" viewBox="0 0 47.949 47.949" style="enable-background:new 0 0 47.949 47.949;"
	 xml:space="preserve">
<g>
	<g id="Layer_1_copy_9_">
		<path d="M35.712,19.641h-3.674v-6.645h3.674v1.126h-2.379v1.475h2.293v1.125h-2.293v1.794h2.379V19.641z M37.869,19.641h-1.295
			v-6.645h1.922c1.494,0,2.352,0.718,2.352,1.962c0,1.018-0.539,1.685-1.514,1.884l2.092,2.799H39.83l-1.793-2.67h-0.168V19.641z
			 M37.869,16.055h0.377c0.828,0,1.268-0.359,1.268-1.027c0-0.646-0.438-0.984-1.246-0.984H37.87L37.869,16.055L37.869,16.055z
			 M28.581,19.811l2.871-6.814h-1.403l-1.796,4.463l-1.771-4.463h-1.416l2.82,6.814H28.581z M41.346,13.666h-0.14v-0.584h0.188
			c0.142,0,0.222,0.063,0.222,0.181c0,0.081-0.045,0.141-0.127,0.163l0.19,0.24h-0.17l-0.164-0.227V13.666L41.346,13.666z
			 M41.346,13.342h0.022c0.069,0,0.106-0.025,0.106-0.077c0-0.05-0.035-0.075-0.104-0.075h-0.024V13.342z M6.065,19.641H7.36v-6.645
			H6.065V19.641z M5.467,16.324c0,0.978-0.447,1.923-1.205,2.549c-0.639,0.529-1.365,0.769-2.369,0.769H0v-6.645h1.9
			C4.002,12.996,5.467,14.363,5.467,16.324z M4.133,16.313c0-0.637-0.27-1.255-0.719-1.654c-0.428-0.387-0.936-0.537-1.771-0.537
			H1.295v4.394h0.348c0.836,0,1.365-0.161,1.771-0.528C3.864,17.589,4.133,16.952,4.133,16.313z M21.936,19.876
			c1.586,0,2.931-1.045,3.375-2.484c0.021-0.061,0.033-0.123,0.051-0.184c0.012-0.052,0.027-0.103,0.037-0.154
			c0.049-0.23,0.072-0.469,0.072-0.714c0-1.951-1.582-3.533-3.535-3.533c-1.463,0-2.721,0.89-3.256,2.159
			c-0.18,0.423-0.277,0.888-0.277,1.376C18.403,18.293,19.985,19.876,21.936,19.876z M16.354,19.789
			c0.559,0,1.037-0.108,1.625-0.387v-1.526c-0.518,0.519-0.977,0.729-1.564,0.729c-1.305,0-2.23-0.947-2.23-2.292
			c0-1.275,0.955-2.282,2.17-2.282c0.619,0,1.088,0.221,1.625,0.748v-1.524c-0.568-0.289-1.037-0.408-1.594-0.408
			c-1.963,0-3.537,1.545-3.537,3.477C12.848,18.275,14.381,19.789,16.354,19.789z M40.913,13.373c0-0.283,0.226-0.509,0.511-0.509
			c0.274,0,0.502,0.23,0.502,0.509c0,0.28-0.228,0.509-0.502,0.509C41.141,13.882,40.913,13.656,40.913,13.373z M41.016,13.374
			c0,0.231,0.184,0.417,0.403,0.417c0.224,0,0.404-0.188,0.404-0.417s-0.183-0.418-0.404-0.418S41.016,13.142,41.016,13.374z
			 M47.949,35.142V22.417c0,0-12.455,8.789-35.269,12.724H47.949z M10.53,15.545c-0.779-0.287-1.008-0.478-1.008-0.836
			c0-0.419,0.408-0.737,0.967-0.737c0.387,0,0.707,0.16,1.045,0.539l0.678-0.889c-0.559-0.487-1.225-0.736-1.953-0.736
			c-1.176,0-2.07,0.816-2.07,1.903c0,0.915,0.416,1.384,1.633,1.822c0.508,0.179,0.766,0.298,0.896,0.378
			c0.26,0.169,0.389,0.409,0.389,0.688c0,0.538-0.428,0.938-1.006,0.938c-0.617,0-1.117-0.31-1.414-0.887l-0.838,0.807
			c0.598,0.877,1.314,1.266,2.299,1.266c1.348,0,2.293-0.896,2.293-2.182C12.44,16.563,12.002,16.084,10.53,15.545z"/>
	</g>
</g>
<g>
</g>
<g>
</g>
<g>
</g>
<g>
</g>
<g>
</g>
<g>
</g>
<g>
</g>
<g>
</g>
<g>
</g>
<g>
</g>
<g>
</g>
<g>
</g>
<g>
</g>
<g>
</g>
<g>
</g>
</svg>
